<svg width="38" height="38" viewBox="0 0 38 38" fill="none" xmlns="http://www.w3.org/2000/svg">
<circle cx="19" cy="19" r="18" fill="url(#paint0_linear)" stroke="#F9F9F9" stroke-width="2"/>
<path fill-rule="evenodd" clip-rule="evenodd" d="M21.7787 23.5C22.3691 23.5 22.2165 22.6901 22.2165 22.6901C22.2081 22.6299 22.1978 22.5719 22.1856 22.5159L25.0122 27.3772C25.3585 27.9728 26.1255 28.1768 26.7253 27.833C27.3251 27.4891 27.5306 26.7275 27.1843 26.1319L26.0844 24.2403C26.0631 24.1945 26.026 24.07 26.2516 24.0695H27.7459C28.4385 24.0695 29 23.512 29 22.8243C29 22.1365 28.4385 21.579 27.7459 21.579H24.7875C24.5861 21.5656 24.498 21.4942 24.4635 21.4527L24.4613 21.4489L21.2944 16.0023L21.2903 16.005L21.1004 15.7346C20.7891 15.262 20.2949 16.4708 20.2949 16.4708C19.7047 17.8178 20.3786 19.3493 20.6136 19.8122L21.5949 21.5C21.0231 21.0133 20.2796 21.0013 20.2796 21.0013L20.2789 20.9713H17.3293C17.1688 20.9563 17.1754 20.8711 17.197 20.8168L22.1316 11.8985C22.4662 11.2938 22.2676 10.5205 21.6881 10.1714C21.1085 9.8222 20.3674 10.0294 20.0328 10.6341L19.4907 11.614L18.9475 10.6324C18.6129 10.0277 17.8718 9.82045 17.2923 10.1696C16.7128 10.5187 16.5142 11.292 16.8488 11.8967L18.0199 14.0133C18.0293 14.0318 18.0831 14.1488 18.0184 14.2726L18.0195 14.2728L14.4733 20.6819L14.471 20.6806C14.471 20.6806 14.367 20.9448 13.9284 20.9713H11.2117C10.5425 20.9713 10 21.5374 10 22.2356C10 22.9339 10.5425 23.5 11.2117 23.5H11.7557C11.2706 23.5002 11.0195 23.7443 10.9123 23.891L10.8468 23.999L10.1643 25.125C9.82609 25.683 10.0268 26.3964 10.6126 26.7185C11.1984 27.0407 11.9475 26.8495 12.2857 26.2915L13.2122 24.7631L13.2096 24.7623C13.3661 24.5409 13.3527 24.3195 13.3526 24.3195C13.2543 23.6469 11.8955 23.5064 11.8955 23.5064C11.8472 23.5021 11.801 23.5 11.7567 23.5H21.1884V23.5H21.7787ZM22.1856 22.5159L21.5949 21.5C21.8576 21.7236 22.0841 22.0472 22.1856 22.5159Z" fill="white"/>
<defs>
<linearGradient id="paint0_linear" x1="36" y1="36" x2="36" y2="2" gradientUnits="userSpaceOnUse">
<stop stop-color="#1D76F2"/>
<stop offset="1" stop-color="#1AC2FB"/>
</linearGradient>
</defs>
</svg>
